<svg width="18" height="18" viewBox="0 0 18 18" fill="none" xmlns="http://www.w3.org/2000/svg">
<path fill-rule="evenodd" clip-rule="evenodd" d="M13.918 3.1655C14.0896 3.58052 14.419 3.91041 14.8337 4.08264L16.288 4.68506C16.7031 4.85698 17.0328 5.18674 17.2047 5.6018C17.3766 6.01685 17.3766 6.4832 17.2047 6.89825L16.6028 8.35158C16.4308 8.76682 16.4305 9.23364 16.6033 9.64868L17.2042 11.1016C17.2894 11.3071 17.3333 11.5275 17.3334 11.75C17.3334 11.9726 17.2896 12.1929 17.2044 12.3985C17.1193 12.6041 16.9944 12.7909 16.8371 12.9483C16.6797 13.1056 16.4928 13.2304 16.2872 13.3155L14.834 13.9175C14.4189 14.0891 14.0891 14.4185 13.9168 14.8332L13.3144 16.2876C13.1425 16.7027 12.8128 17.0324 12.3977 17.2043C11.9827 17.3763 11.5164 17.3763 11.1013 17.2043L9.64806 16.6023C9.23301 16.4308 8.76685 16.4312 8.35206 16.6033L6.89774 17.2049C6.48293 17.3764 6.017 17.3763 5.6023 17.2045C5.1876 17.0327 4.85804 16.7033 4.686 16.2887L4.08342 14.8339C3.91183 14.4189 3.58245 14.089 3.1677 13.9168L1.71338 13.3143C1.29852 13.1425 0.968872 12.813 0.796894 12.3981C0.624916 11.9833 0.624682 11.5172 0.796246 11.1022L1.39821 9.64887C1.5697 9.23381 1.56935 8.76762 1.39724 8.35282L0.796136 6.8974C0.710911 6.69183 0.667028 6.47148 0.666992 6.24894C0.666957 6.0264 0.710769 5.80604 0.795928 5.60044C0.881086 5.39484 1.00592 5.20804 1.1633 5.05071C1.32068 4.89338 1.50751 4.7686 1.71313 4.6835L3.16641 4.08151C3.58105 3.91006 3.91073 3.58108 4.08308 3.1668L4.68548 1.71242C4.85739 1.29737 5.18714 0.96761 5.60218 0.795689C6.01722 0.623768 6.48355 0.623768 6.89859 0.795689L8.35186 1.39768C8.76691 1.56918 9.23308 1.56882 9.64787 1.3967L11.1028 0.796622C11.5178 0.624798 11.984 0.624833 12.399 0.79672C12.8139 0.968607 13.1436 1.29827 13.3156 1.71322L13.9182 3.16802L13.918 3.1655ZM12.5062 7.50592C12.8317 7.18049 12.8317 6.65285 12.5062 6.32741C12.1808 6.00197 11.6532 6.00197 11.3277 6.32741L8.16699 9.48816L7.08958 8.41074C6.76414 8.08531 6.2365 8.08531 5.91106 8.41074C5.58563 8.73618 5.58563 9.26382 5.91106 9.58926L7.57773 11.2559C7.90317 11.5814 8.43081 11.5814 8.75624 11.2559L12.5062 7.50592Z" fill="#663A00"/>
</svg>
