<svg width="56" height="56" viewBox="0 0 56 56" fill="none" xmlns="http://www.w3.org/2000/svg">
<rect width="56" height="56" rx="28" fill="#FAFAFA"/>
<path d="M38.6663 40V37.3333C38.6663 35.9188 38.1044 34.5623 37.1042 33.5621C36.1041 32.5619 34.7475 32 33.333 32H22.6663C21.2519 32 19.8953 32.5619 18.8951 33.5621C17.8949 34.5623 17.333 35.9188 17.333 37.3333V40M33.333 21.3333C33.333 24.2789 30.9452 26.6667 27.9997 26.6667C25.0542 26.6667 22.6663 24.2789 22.6663 21.3333C22.6663 18.3878 25.0542 16 27.9997 16C30.9452 16 33.333 18.3878 33.333 21.3333Z" stroke="#D9D9D9" stroke-width="2.66667" stroke-linecap="round" stroke-linejoin="round"/>
</svg>
