<svg width="230" height="80" viewBox="0 0 230 80" fill="none" xmlns="http://www.w3.org/2000/svg">
<g filter="url(#filter0_d_838_7170)">
<rect x="16.6338" y="12" width="197" height="48" rx="8" fill="#361E00" shape-rendering="crispEdges"/>
<path d="M43.5303 21.9121V31.0723H42.2998V21.9121H43.5303ZM33.6045 28.748V23.0879H38.3896V25.3027H39.9072V22.1309H41.1377V30.7031H39.9072V26.3691H38.3896V28.748H33.6045ZM34.8213 27.7363H37.1865V24.1133H34.8213V27.7363ZM35.4092 33.9023V29.9375H36.6943V32.8496H43.8857V33.9023H35.4092ZM55.124 28.1875V29.2266H51.4189V31.6191H56.3955V32.6855H45.1846V31.6191H50.1201V29.2266H46.5928V22.8555H55.001V23.9219H47.9053V25.4941H54.7412V26.5195H47.9053V28.1875H55.124ZM67.4424 21.9258V29.4316H66.1436V21.9258H67.4424ZM57.8994 23.7441V22.6777H63.5322V26.1504H59.1982V27.6816C61.3447 27.668 62.9102 27.5996 64.7764 27.3125L64.9404 28.3652C62.9375 28.6934 61.2695 28.748 58.9521 28.748H57.9268V25.1523H62.2471V23.7441H57.8994ZM59.1846 31.9062C59.1846 30.4775 60.7568 29.6572 63.3545 29.6641C65.9453 29.6572 67.5244 30.4775 67.5244 31.9062C67.5244 33.3213 65.9453 34.1416 63.3545 34.1348C60.7568 34.1416 59.1846 33.3213 59.1846 31.9062ZM60.4697 31.9062C60.4766 32.6787 61.5361 33.1162 63.3545 33.1094C65.166 33.1162 66.2256 32.6787 66.2256 31.9062C66.2256 31.127 65.166 30.6826 63.3545 30.6895C61.5361 30.6826 60.4766 31.127 60.4697 31.9062ZM79.5283 21.9121V34.1895H78.2295V21.9121H79.5283ZM69.8076 27.1211C69.8076 24.5029 71.127 22.835 72.9795 22.8281C74.7979 22.835 76.1377 24.5029 76.1377 27.1211C76.1377 29.7666 74.7979 31.4346 72.9795 31.4277C71.127 31.4346 69.8076 29.7666 69.8076 27.1211ZM71.0654 27.1211C71.0586 29.0693 71.8379 30.2656 72.9795 30.2656C74.1006 30.2656 74.8799 29.0693 74.8799 27.1211C74.8799 25.2002 74.1006 23.9971 72.9795 23.9902C71.8379 23.9971 71.0586 25.2002 71.0654 27.1211ZM94.6768 22.4727V23.498C94.6631 24.4688 94.6631 25.4805 94.3486 26.752L93.0498 26.6016C93.3779 25.3574 93.3779 24.4551 93.3779 23.5117H86.2139V22.4727H94.6768ZM84.915 28.4336V27.3809H89.3857V25.166H90.6572V27.3809H96.0576V28.4336H84.915ZM86.2686 33.998V29.6641H94.6494V30.7031H87.5811V32.9453H94.8135V33.998H86.2686ZM104.917 25.0293C104.903 27.2646 106.257 29.5205 108.157 30.3613L107.378 31.3867C105.97 30.7168 104.855 29.3428 104.281 27.668C103.714 29.4658 102.586 30.9424 101.116 31.6602L100.323 30.5664C102.251 29.7119 103.604 27.3672 103.604 25.0293V22.9375H104.917V25.0293ZM109.265 34.1895V21.9121H110.563V34.1895H109.265ZM116.798 24.1133C116.791 25.6787 117.878 27.1621 119.751 27.791L119.095 28.8027C117.707 28.3242 116.688 27.3672 116.155 26.1641C115.622 27.4834 114.556 28.5293 113.12 29.0352L112.423 28.0234C114.337 27.374 115.492 25.7881 115.499 24.0996V23.7715H112.806V22.7188H119.437V23.7715H116.798V24.1133ZM114.05 30.9492V29.8965H122.144V34.1621H120.845V30.9492H114.05ZM120.845 29.2949V21.9121H122.144V25.0566H123.921V26.1504H122.144V29.2949H120.845ZM124.468 30.5117C125.22 30.5117 126.163 30.498 127.147 30.4707V28.1465H125.083V23.1152H130.319V24.168H126.354V27.0938H130.429V28.1465H128.392V30.4229C129.239 30.3818 130.08 30.3271 130.812 30.2383L130.88 31.1816C128.87 31.5234 126.286 31.585 124.646 31.5918L124.468 30.5117ZM131.358 33.5332V22.1582H132.562V26.9434H133.901V21.9121H135.146V34.1621H133.901V27.9961H132.562V33.5332H131.358ZM147.929 31.5508V32.6309H136.718V31.5508H139.397V28.3516C138.393 27.7979 137.777 26.9229 137.784 25.8223C137.777 23.8945 139.671 22.6299 142.296 22.623C144.928 22.6299 146.821 23.8945 146.821 25.8223C146.821 26.9023 146.233 27.7705 145.249 28.3242V31.5508H147.929ZM139.042 25.8223C139.042 27.1348 140.375 27.9893 142.296 27.9961C144.203 27.9893 145.557 27.1348 145.563 25.8223C145.557 24.5029 144.203 23.6621 142.296 23.6621C140.375 23.6621 139.042 24.5029 139.042 25.8223ZM140.683 31.5508H143.937V28.8301C143.438 28.9463 142.884 29.0078 142.296 29.0078C141.722 29.0078 141.175 28.9463 140.683 28.8301V31.5508ZM151.073 23.1016L150.95 30.1426H149.597L149.474 23.1016H151.073ZM149.31 32.125C149.303 31.5918 149.747 31.1543 150.28 31.1543C150.807 31.1543 151.244 31.5918 151.251 32.125C151.244 32.6582 150.807 33.0889 150.28 33.0957C149.747 33.0889 149.303 32.6582 149.31 32.125ZM43.2979 37.9258V46.9492H41.999V43.7637H38.957C38.3828 44.4541 37.4941 44.8711 36.4756 44.8711C34.6299 44.8711 33.2559 43.5791 33.2627 41.7812C33.2559 39.9697 34.6299 38.6777 36.4756 38.6641C37.4873 38.6709 38.3691 39.0879 38.9434 39.7715H41.999V37.9258H43.2979ZM34.5068 41.7812C34.5 42.9365 35.3271 43.7295 36.4756 43.7227C37.5762 43.7295 38.417 42.9365 38.417 41.7812C38.417 40.626 37.5762 39.833 36.4756 39.8262C35.3271 39.833 34.5 40.626 34.5068 41.7812ZM35.3408 49.9023V46.0059H36.6396V48.8496H43.626V49.9023H35.3408ZM39.5176 40.8242C39.6133 41.125 39.6611 41.4395 39.6611 41.7812C39.6611 42.1094 39.6133 42.4238 39.5244 42.7109H41.999V40.8242H39.5176ZM55.3975 37.9121V44.1465H54.0986V42.9707H50.9951V41.959H54.0986V40.6328H51.1455C50.3867 42.5332 48.5342 43.791 45.8271 44.4199L45.376 43.3535C48.3154 42.7041 49.9014 41.3369 50.1133 39.5391H46.0186V38.4727H51.542C51.542 38.8691 51.5078 39.2451 51.4395 39.6074H54.0986V37.9121H55.3975ZM47.3857 45.6914V44.666H55.3975V47.7695H48.6982V49H55.7666V50.0391H47.4131V46.7852H54.0986V45.6914H47.3857ZM66.8271 37.9121V42.875H68.7959V43.9551H66.8271V50.1621H65.542V37.9121H66.8271ZM57.2158 40.8926V39.8262H60.2373V38.0762H61.5361V39.8262H64.4756V40.8926H57.2158ZM57.8447 44.6387C57.8447 42.9707 59.1299 41.7949 60.8936 41.7949C62.6504 41.7949 63.9355 42.9707 63.9424 44.6387C63.9355 46.3203 62.6504 47.4893 60.8936 47.4961C59.1299 47.4893 57.8447 46.3203 57.8447 44.6387ZM59.0889 44.6387C59.082 45.7051 59.8477 46.416 60.8936 46.4023C61.9326 46.416 62.6914 45.7051 62.6982 44.6387C62.6914 43.5928 61.9326 42.8682 60.8936 42.8613C59.8477 42.8682 59.082 43.5928 59.0889 44.6387ZM79.583 37.9121V50.1895H78.2979V45.0625H75.9053V43.9824H78.2979V41.7129H75.9736V40.6465H78.2979V37.9121H79.583ZM69.8076 40.0449V38.9922H75.2354V43.4629H71.1338V46.2793C72.8633 46.2725 74.3262 46.1904 76.0693 45.9375L76.1787 47.0039C74.2646 47.3047 72.6992 47.3594 70.7646 47.3594H69.835V42.4375H73.9639V40.0449H69.8076ZM87.7314 38.9512V39.9902H90.3975V37.9258H91.6963V46.8535H90.3975V43.6816H87.7314V44.748H82.0439V38.9512H87.7314ZM83.3291 43.7227H86.46V40.0039H83.3291V43.7227ZM83.6982 49.9023V46.0332H85.0107V48.8496H91.9697V49.9023H83.6982ZM87.7314 42.6152H90.3975V41.0566H87.7314V42.6152ZM107.214 37.9121V50.1895H105.929V43.4492H103.222V47.1543H97.4795V38.8555H98.792V41.9863H101.95V38.8555H103.222V42.3828H105.929V37.9121H107.214ZM98.792 46.0879H101.95V43.0117H98.792V46.0879ZM120.271 44.6387V45.6777H109.073V44.6387H120.271ZM110.509 49.9023V46.4844H111.794V48.8496H119.108V49.9023H110.509ZM110.536 43.6133V38.3496H118.903V39.3613H111.849V40.4824H118.589V41.4668H111.849V42.6152H118.985V43.6133H110.536ZM126.778 38.1172C129.54 38.1104 131.146 38.8555 131.153 40.2227C131.146 41.5967 129.54 42.3418 126.778 42.3418C124.017 42.3418 122.396 41.5967 122.403 40.2227C122.396 38.8555 124.017 38.1104 126.778 38.1172ZM121.2 44.1328V43.0938H132.37V44.1328H121.2ZM122.54 46.0469V45.0762H130.962V47.9473H123.825V49.041H131.304V50.0391H122.554V47.0039H129.677V46.0469H122.54ZM123.757 40.2227C123.75 40.9814 124.83 41.3711 126.778 41.3711C128.74 41.3711 129.82 40.9814 129.813 40.2227C129.82 39.498 128.74 39.0742 126.778 39.0742C124.83 39.0742 123.75 39.498 123.757 40.2227ZM146.603 40.7012V41.7539H138.194V38.0898H139.466V40.7012H146.603ZM136.704 43.7637V42.6973H147.915V43.7637H142.911V44.9395H146.507V47.8652H139.397V49.0273H146.931V50.0391H138.099V46.9492H145.222V45.9375H138.071V44.9395H141.653V43.7637H136.704ZM159.017 37.9121V50.1895H157.731V43.5996H155.489V42.5195H157.731V37.9121H159.017ZM149.241 40.0723V39.0195H154.765V43.3945H150.567V46.1836C152.522 46.1699 154.026 46.1084 155.735 45.8008L155.845 46.8672C154.013 47.1885 152.399 47.2637 150.239 47.2773H149.269V42.3418H153.507V40.0723H149.241ZM172.087 44.8164V45.8691H167.11V50.1484H165.839V45.8691H160.917V44.8164H172.087ZM161.546 42.8613C163.829 42.5469 165.729 41.1865 165.771 39.6758H161.956V38.6367H171.034V39.6758H167.247C167.268 41.1865 169.154 42.5469 171.472 42.8613L170.993 43.8867C168.983 43.5723 167.247 42.5811 166.502 41.1865C165.75 42.5811 164.021 43.5723 162.038 43.8867L161.546 42.8613ZM176.749 41.2617C176.749 43.2168 177.569 45.3018 179.21 46.3066L178.485 47.3047C177.337 46.6143 176.564 45.3906 176.141 43.9756C175.696 45.5273 174.849 46.8535 173.659 47.5781L172.853 46.6074C174.582 45.5684 175.498 43.4014 175.491 41.3164V39.0332H176.749V41.2617ZM177.884 43.2988V42.2188H179.784V38.1445H181.015V49.5605H179.784V43.2988H177.884ZM182.313 50.1621V37.9121H183.558V50.1621H182.313ZM196.327 47.5508V48.6309H185.116V47.5508H187.796V44.3516C186.791 43.7979 186.176 42.9229 186.183 41.8223C186.176 39.8945 188.069 38.6299 190.694 38.623C193.326 38.6299 195.22 39.8945 195.22 41.8223C195.22 42.9023 194.632 43.7705 193.647 44.3242V47.5508H196.327ZM187.44 41.8223C187.44 43.1348 188.773 43.9893 190.694 43.9961C192.602 43.9893 193.955 43.1348 193.962 41.8223C193.955 40.5029 192.602 39.6621 190.694 39.6621C188.773 39.6621 187.44 40.5029 187.44 41.8223ZM189.081 47.5508H192.335V44.8301C191.836 44.9463 191.282 45.0078 190.694 45.0078C190.12 45.0078 189.573 44.9463 189.081 44.8301V47.5508Z" fill="white"/>
</g>
<path d="M221.5 38.5981C223.5 37.4434 223.5 34.5566 221.5 33.4019L213.634 28.8605V43.1395L221.5 38.5981Z" fill="#361E00"/>
<defs>
<filter id="filter0_d_838_7170" x="0.633789" y="0" width="229" height="80" filterUnits="userSpaceOnUse" color-interpolation-filters="sRGB">
<feFlood flood-opacity="0" result="BackgroundImageFix"/>
<feColorMatrix in="SourceAlpha" type="matrix" values="0 0 0 0 0 0 0 0 0 0 0 0 0 0 0 0 0 0 127 0" result="hardAlpha"/>
<feOffset dy="4"/>
<feGaussianBlur stdDeviation="8"/>
<feComposite in2="hardAlpha" operator="out"/>
<feColorMatrix type="matrix" values="0 0 0 0 0.211765 0 0 0 0 0.117647 0 0 0 0 0 0 0 0 0.25 0"/>
<feBlend mode="normal" in2="BackgroundImageFix" result="effect1_dropShadow_838_7170"/>
<feBlend mode="normal" in="SourceGraphic" in2="effect1_dropShadow_838_7170" result="shape"/>
</filter>
</defs>
</svg>
