<svg width="148" height="80" viewBox="0 0 148 80" fill="none" xmlns="http://www.w3.org/2000/svg">
<g filter="url(#filter0_d_838_7171)">
<rect x="16" y="12" width="116" height="48" rx="24" fill="#361E00" shape-rendering="crispEdges"/>
<path d="M39.9609 39.8379C40.8984 40.7754 41.888 41.6217 42.9297 42.377C43.9714 43.1322 45.013 43.7311 46.0547 44.1738C47.0964 44.6165 48.0827 44.8379 49.0137 44.8379C49.6452 44.8379 50.2343 44.724 50.7812 44.4961C51.3281 44.2682 51.8229 43.9102 52.2656 43.4219C52.526 43.1354 52.7311 42.8278 52.8809 42.499C53.0306 42.1703 53.1055 41.8399 53.1055 41.5078C53.1055 41.2604 53.0567 41.0244 52.959 40.7998C52.8613 40.5752 52.6953 40.3815 52.4609 40.2188L49.4629 38.0898C49.235 37.9336 49.0234 37.8164 48.8281 37.7383C48.6328 37.6602 48.4473 37.6211 48.2715 37.6211C48.0502 37.6211 47.8353 37.6813 47.627 37.8018C47.4187 37.9222 47.2038 38.0931 46.9824 38.3145L46.2891 38.998C46.1914 39.1022 46.0677 39.1543 45.918 39.1543C45.8399 39.1543 45.7666 39.1413 45.6982 39.1152C45.6299 39.0892 45.5729 39.0664 45.5273 39.0469C45.2214 38.8841 44.8308 38.6025 44.3555 38.2021C43.8802 37.8018 43.4017 37.3607 42.9199 36.8789C42.4447 36.3971 42.0052 35.9186 41.6016 35.4434C41.1979 34.9681 40.918 34.5807 40.7617 34.2812C40.7357 34.2292 40.7113 34.1689 40.6885 34.1006C40.6657 34.0322 40.6543 33.9622 40.6543 33.8906C40.6543 33.7474 40.7031 33.627 40.8008 33.5293L41.4941 32.8164C41.709 32.5951 41.8783 32.3802 42.0019 32.1719C42.1256 31.9635 42.1875 31.7487 42.1875 31.5273C42.1875 31.3516 42.1468 31.166 42.0654 30.9707C41.9841 30.7754 41.862 30.5638 41.6992 30.3359L39.5996 27.377C39.4303 27.1426 39.2285 26.9717 38.9941 26.8643C38.7598 26.7568 38.5124 26.7031 38.252 26.7031C37.5814 26.7031 36.9531 26.9863 36.3672 27.5527C35.8919 28.0085 35.5452 28.5114 35.3271 29.0615C35.109 29.6117 35 30.1992 35 30.8242C35 31.7617 35.2181 32.7464 35.6543 33.7783C36.0905 34.8102 36.6829 35.8437 37.4316 36.8789C38.1803 37.914 39.0234 38.9004 39.9609 39.8379Z" fill="white"/>
<path d="M74.8555 29.8301V38.9082H73.1191V34.4512H71.082V33.043H73.1191V29.8301H74.8555ZM64.3008 36.1055C66.3584 35.4629 67.2881 33.8428 67.2949 32.25V32.0586H64.793V30.6641H71.5469V32.0586H69.0723V32.2637C69.0654 33.7061 69.9541 35.2441 71.9297 35.8867L71.0684 37.2676C69.6943 36.8164 68.7441 35.9141 68.2041 34.7998C67.6504 36.0371 66.6592 37.042 65.1895 37.5273L64.3008 36.1055ZM66.5977 42.0391V38.1152H68.3477V40.6445H75.1562V42.0391H66.5977ZM86.4219 29.8164V34.875H88.0488V36.3242H86.4219V42.2578H84.6582V29.8164H86.4219ZM76.3184 38.7441C77.2275 38.7441 78.2871 38.7441 79.3945 38.7168V37.6504C78.0752 37.3906 77.2139 36.5498 77.2207 35.3945C77.2139 34.0068 78.4717 33.0566 80.2832 33.0566C82.0605 33.0566 83.332 34.0068 83.3457 35.3945C83.332 36.5498 82.457 37.3975 81.1445 37.6504V38.6553C82.1289 38.6006 83.1201 38.5186 84.043 38.3887L84.1523 39.6602C81.5068 40.1523 78.6494 40.1729 76.5508 40.166L76.3184 38.7441ZM76.5645 32.5645V31.1973H79.3945V29.8848H81.1445V31.1973H83.9473V32.5645H76.5645ZM78.875 35.3945C78.8682 36.0508 79.4287 36.4062 80.2832 36.4062C81.1104 36.4062 81.6641 36.0508 81.6641 35.3945C81.6641 34.752 81.1104 34.3896 80.2832 34.3828C79.4287 34.3896 78.8682 34.752 78.875 35.3945ZM102.281 29.8164V36.0508H100.545V33.877H98.3027V32.4688H100.545V29.8164H102.281ZM91.959 34.998C94.6797 34.3965 96.0264 33.1797 96.2793 31.6758H92.6426V30.2676H98.1523C98.1592 33.5146 96.2041 35.5107 92.5332 36.3789L91.959 34.998ZM94.0098 37.8965V36.5293H102.281V39.9336H95.7734V40.7539H102.555V42.1348H94.0234V38.6484H100.531V37.8965H94.0098ZM114.354 29.8164V42.2578H112.59V29.8164H114.354ZM103.936 38.7305C107.148 37.2129 108.563 35.2441 108.844 32.4824H104.605V31.1152H110.621C110.614 34.8887 109.295 38.0264 104.852 40.125L103.936 38.7305Z" fill="white"/>
</g>
<defs>
<filter id="filter0_d_838_7171" x="0" y="0" width="148" height="80" filterUnits="userSpaceOnUse" color-interpolation-filters="sRGB">
<feFlood flood-opacity="0" result="BackgroundImageFix"/>
<feColorMatrix in="SourceAlpha" type="matrix" values="0 0 0 0 0 0 0 0 0 0 0 0 0 0 0 0 0 0 127 0" result="hardAlpha"/>
<feOffset dy="4"/>
<feGaussianBlur stdDeviation="8"/>
<feComposite in2="hardAlpha" operator="out"/>
<feColorMatrix type="matrix" values="0 0 0 0 0.211765 0 0 0 0 0.117647 0 0 0 0 0 0 0 0 0.25 0"/>
<feBlend mode="normal" in2="BackgroundImageFix" result="effect1_dropShadow_838_7171"/>
<feBlend mode="normal" in="SourceGraphic" in2="effect1_dropShadow_838_7171" result="shape"/>
</filter>
</defs>
</svg>
