<svg width="24" height="24" viewBox="0 0 24 24" fill="none" xmlns="http://www.w3.org/2000/svg">
<path d="M5.17188 11.2246C5.17188 12.5007 5.43392 13.6335 5.95801 14.623C6.4821 15.6126 7.21289 16.4053 8.15039 17.001C9.08789 17.5967 10.1784 17.9466 11.4219 18.0508V20.3262H7.79883C7.5905 20.3262 7.41471 20.3978 7.27148 20.541C7.12825 20.6843 7.05664 20.8601 7.05664 21.0684C7.05664 21.2702 7.12825 21.4427 7.27148 21.5859C7.41471 21.7292 7.5905 21.8008 7.79883 21.8008H16.5195C16.7278 21.8008 16.9036 21.7292 17.0469 21.5859C17.1901 21.4427 17.2617 21.2702 17.2617 21.0684C17.2617 20.8601 17.1901 20.6843 17.0469 20.541C16.9036 20.3978 16.7278 20.3262 16.5195 20.3262H12.8965V18.0508C13.4499 18.0117 13.9723 17.919 14.4639 17.7725C14.9554 17.626 15.4128 17.4323 15.8359 17.1914L14.791 16.1367C14.4134 16.319 14.0049 16.459 13.5654 16.5566C13.126 16.6543 12.6589 16.7031 12.1641 16.7031C11.0508 16.7031 10.0807 16.4736 9.25391 16.0146C8.42708 15.5557 7.78581 14.9095 7.33008 14.0762C6.87435 13.2429 6.64648 12.2728 6.64648 11.166V9.24219C6.64648 9.04036 6.57487 8.86784 6.43164 8.72461C6.28841 8.58138 6.11263 8.50977 5.9043 8.50977C5.70247 8.50977 5.52995 8.58138 5.38672 8.72461C5.24349 8.86784 5.17188 9.04036 5.17188 9.24219V11.2246ZM17.3301 13.2363L18.4727 14.3789C18.9219 13.4349 19.1465 12.3835 19.1465 11.2246V9.24219C19.1465 9.04036 19.0749 8.86784 18.9316 8.72461C18.7884 8.58138 18.6159 8.50977 18.4141 8.50977C18.2058 8.50977 18.03 8.58138 17.8867 8.72461C17.7435 8.86784 17.6719 9.04036 17.6719 9.24219V11.166C17.6719 11.9082 17.558 12.5983 17.3301 13.2363ZM12.1641 14.6035C12.5091 14.6035 12.8216 14.5514 13.1016 14.4473L8.90234 10.248V11.0684C8.90234 11.765 9.03906 12.3786 9.3125 12.9092C9.58594 13.4398 9.9668 13.8548 10.4551 14.1543C10.9434 14.4538 11.513 14.6035 12.1641 14.6035ZM12.1641 1C12.8086 1 13.3766 1.14974 13.8682 1.44922C14.3597 1.7487 14.7406 2.16374 15.0107 2.69434C15.2809 3.22493 15.416 3.83854 15.416 4.53516V11.0684C15.416 11.1075 15.4144 11.1481 15.4111 11.1904C15.4078 11.2327 15.3997 11.2702 15.3867 11.3027L8.90234 4.81836V4.42773C8.91537 3.75065 9.06022 3.15495 9.33691 2.64062C9.6136 2.1263 9.99284 1.72428 10.4746 1.43457C10.9564 1.14486 11.5195 1 12.1641 1ZM19.332 19.0176C19.4753 19.1608 19.6527 19.2324 19.8643 19.2324C20.0758 19.2324 20.2532 19.1608 20.3965 19.0176C20.5397 18.8679 20.6113 18.6888 20.6113 18.4805C20.6113 18.2722 20.5397 18.0964 20.3965 17.9531L5.28906 2.85547C5.13932 2.71224 4.96028 2.64062 4.75195 2.64062C4.54362 2.64062 4.36458 2.71224 4.21484 2.85547C4.07161 2.9987 4 3.17773 4 3.39258C4 3.60742 4.07161 3.7832 4.21484 3.91992L19.332 19.0176Z" fill="#434343"/>
</svg>
