<svg width="24" height="24" viewBox="0 0 24 24" fill="none" xmlns="http://www.w3.org/2000/svg">
<path d="M5 11.2246C5 12.5007 5.26204 13.6335 5.78613 14.623C6.31022 15.6126 7.04102 16.4053 7.97852 17.001C8.91602 17.5967 10.0065 17.9466 11.25 18.0508V20.3262H7.62695C7.41862 20.3262 7.24284 20.3978 7.09961 20.541C6.95638 20.6843 6.88477 20.8601 6.88477 21.0684C6.88477 21.2702 6.95638 21.4427 7.09961 21.5859C7.24284 21.7292 7.41862 21.8008 7.62695 21.8008H16.3477C16.556 21.8008 16.7318 21.7292 16.875 21.5859C17.0182 21.4427 17.0898 21.2702 17.0898 21.0684C17.0898 20.8601 17.0182 20.6843 16.875 20.541C16.7318 20.3978 16.556 20.3262 16.3477 20.3262H12.7246V18.0508C13.9681 17.9466 15.0586 17.5967 15.9961 17.001C16.9336 16.4053 17.6644 15.6126 18.1885 14.623C18.7126 13.6335 18.9746 12.5007 18.9746 11.2246V9.24219C18.9746 9.04036 18.903 8.86784 18.7598 8.72461C18.6165 8.58138 18.444 8.50977 18.2422 8.50977C18.0339 8.50977 17.8581 8.58138 17.7148 8.72461C17.5716 8.86784 17.5 9.04036 17.5 9.24219V11.166C17.5 12.2728 17.2721 13.2429 16.8164 14.0762C16.3607 14.9095 15.721 15.5557 14.8975 16.0146C14.0739 16.4736 13.1055 16.7031 11.9922 16.7031C10.8789 16.7031 9.90886 16.4736 9.08203 16.0146C8.25521 15.5557 7.61393 14.9095 7.1582 14.0762C6.70247 13.2429 6.47461 12.2728 6.47461 11.166V9.24219C6.47461 9.04036 6.403 8.86784 6.25977 8.72461C6.11654 8.58138 5.94075 8.50977 5.73242 8.50977C5.5306 8.50977 5.35807 8.58138 5.21484 8.72461C5.07161 8.86784 5 9.04036 5 9.24219V11.2246ZM11.9922 14.6035C12.6367 14.6035 13.2048 14.4538 13.6963 14.1543C14.1878 13.8548 14.5687 13.4398 14.8389 12.9092C15.109 12.3786 15.2441 11.765 15.2441 11.0684V4.53516C15.2441 3.83854 15.109 3.22493 14.8389 2.69434C14.5687 2.16374 14.1878 1.7487 13.6963 1.44922C13.2048 1.14974 12.6367 1 11.9922 1C11.3411 1 10.7715 1.14974 10.2832 1.44922C9.79492 1.7487 9.41406 2.16374 9.14062 2.69434C8.86719 3.22493 8.73047 3.83854 8.73047 4.53516V11.0684C8.73047 11.765 8.86719 12.3786 9.14062 12.9092C9.41406 13.4398 9.79492 13.8548 10.2832 14.1543C10.7715 14.4538 11.3411 14.6035 11.9922 14.6035Z" fill="white"/>
</svg>
