<svg width="56" height="56" viewBox="0 0 56 56" fill="none" xmlns="http://www.w3.org/2000/svg">
<path d="M28 55.9999C31.8249 55.9999 35.4255 55.2683 38.8019 53.805C42.1784 52.3416 45.1568 50.3204 47.7371 47.7413C50.3176 45.1621 52.3398 42.1851 53.8038 38.8104C55.2679 35.4355 56 31.8366 56 28.0137C56 24.1907 55.2679 20.5918 53.8038 17.217C52.3398 13.8422 50.3176 10.8652 47.7371 8.28606C45.1568 5.70693 42.1738 3.6857 38.7881 2.22235C35.4026 0.759013 31.7974 0.0273438 27.9725 0.0273438C24.1477 0.0273438 20.547 0.759013 17.1706 2.22235C13.7941 3.6857 10.8202 5.70693 8.24901 8.28606C5.67777 10.8652 3.66013 13.8422 2.19608 17.217C0.732025 20.5918 0 24.1907 0 28.0137C0 31.8366 0.732025 35.4355 2.19608 38.8104C3.66013 42.1851 5.68234 45.1621 8.26273 47.7413C10.8431 50.3204 13.8216 52.3416 17.198 53.805C20.5745 55.2683 24.1751 55.9999 28 55.9999Z" fill="#FF3B30" fill-opacity="0.9"/>
<path d="M8.7294 30.7576V30.4556C8.7294 28.5716 9.28757 26.93 10.4039 25.5307C11.5203 24.1313 13.0118 22.9744 14.8784 22.0598C16.7451 21.1452 18.8176 20.4639 21.096 20.0157C23.3745 19.5676 25.6758 19.3435 28 19.3435C30.3242 19.3435 32.6301 19.5676 34.9177 20.0157C37.2052 20.4639 39.2824 21.1452 41.149 22.0598C43.0157 22.9744 44.5072 24.1313 45.6236 25.5307C46.7399 26.93 47.2981 28.5716 47.2981 30.4556V30.7576C47.2981 31.4527 47.1791 32.0838 46.9411 32.6507C46.7033 33.2177 46.3509 33.6659 45.8841 33.9951C45.4175 34.3244 44.8182 34.4891 44.0862 34.4891C43.2994 34.4891 42.3935 34.4388 41.3686 34.3382C40.3437 34.2376 39.0352 33.9403 37.4431 33.4464C36.528 33.172 35.8646 32.7834 35.4529 32.2804C35.0412 31.7773 34.8261 31.0228 34.8078 30.0167L34.753 28.2607C34.753 27.9498 34.5608 27.7211 34.1764 27.5748C33.7006 27.4284 32.9274 27.2775 31.8568 27.122C30.7862 26.9666 29.5006 26.8888 28 26.8888C26.4993 26.8888 25.2137 26.9666 24.1431 27.122C23.0725 27.2775 22.3085 27.4284 21.851 27.5748C21.4483 27.7211 21.247 27.9498 21.247 28.2607L21.2196 30.0167C21.2013 31.0228 20.9817 31.7773 20.5607 32.2804C20.1398 32.7834 19.4719 33.172 18.5568 33.4464C16.9647 33.9403 15.6608 34.2376 14.6451 34.3382C13.6294 34.4388 12.7189 34.4891 11.9137 34.4891C11.2 34.4891 10.6098 34.3244 10.1431 33.9951C9.67647 33.6659 9.32418 33.2177 9.08626 32.6507C8.84835 32.0838 8.7294 31.4527 8.7294 30.7576Z" fill="white"/>
</svg>
