<svg width="56" height="56" viewBox="0 0 56 56" fill="none" xmlns="http://www.w3.org/2000/svg">
<rect width="56" height="56" rx="28" fill="white"/>
<path d="M22.3457 33.3731C23.6582 34.6855 25.0436 35.8704 26.502 36.9278C27.9603 37.9851 29.4186 38.8236 30.877 39.4433C32.3353 40.0631 33.7162 40.3731 35.0196 40.3731C35.9036 40.3731 36.7285 40.2136 37.4941 39.8945C38.2598 39.5755 38.9525 39.0742 39.5722 38.3907C39.9368 37.9896 40.2239 37.5589 40.4336 37.0986C40.6433 36.6384 40.7481 36.1758 40.7481 35.7109C40.7481 35.3646 40.6797 35.0342 40.543 34.7197C40.4063 34.4053 40.1738 34.1341 39.8456 33.9063L35.6485 30.9257C35.3294 30.707 35.0332 30.543 34.7597 30.4336C34.4864 30.3242 34.2266 30.2695 33.9805 30.2695C33.6706 30.2695 33.3699 30.3539 33.0782 30.5225C32.7865 30.6911 32.4857 30.9303 32.1758 31.2403L31.2051 32.1972C31.0684 32.3431 30.8952 32.416 30.6856 32.416C30.5762 32.416 30.4736 32.3978 30.3779 32.3613C30.2822 32.3249 30.2024 32.293 30.1386 32.2657C29.7103 32.0377 29.1634 31.6435 28.498 31.0829C27.8327 30.5225 27.1628 29.905 26.4883 29.2305C25.8229 28.5559 25.2077 27.886 24.6426 27.2207C24.0775 26.5553 23.6855 26.013 23.4668 25.5938C23.4303 25.5208 23.3962 25.4365 23.3643 25.3408C23.3324 25.2451 23.3164 25.1471 23.3164 25.0469C23.3164 24.8464 23.3848 24.6777 23.5215 24.541L24.4922 23.543C24.793 23.2331 25.0299 22.9323 25.2031 22.6406C25.3763 22.349 25.4629 22.0482 25.4629 21.7383C25.4629 21.4922 25.4059 21.2324 25.292 20.959C25.1781 20.6855 25.0072 20.3893 24.7793 20.0703L21.8398 15.9277C21.6029 15.5996 21.3203 15.3604 20.9922 15.21C20.6641 15.0596 20.3177 14.9844 19.9531 14.9844C19.0143 14.9844 18.1348 15.3809 17.3145 16.1738C16.6491 16.8118 16.1637 17.516 15.8584 18.2861C15.5531 19.0563 15.4004 19.8789 15.4004 20.7539C15.4004 22.0664 15.7057 23.445 16.3164 24.8896C16.9271 26.3343 17.7565 27.7812 18.8047 29.2305C19.8529 30.6796 21.0332 32.0605 22.3457 33.3731Z" fill="#28CD41"/>
</svg>
