<svg width="24" height="24" viewBox="0 0 24 24" fill="none" xmlns="http://www.w3.org/2000/svg">
<path d="M11.5273 20.2265C11.8528 20.2265 12.1181 20.1224 12.3232 19.914C12.5283 19.7057 12.6309 19.4453 12.6309 19.1328V4.15234C12.6309 3.83333 12.5267 3.56152 12.3184 3.33691C12.1101 3.1123 11.8399 3 11.5078 3C11.2799 3 11.0765 3.05371 10.8975 3.16113C10.7184 3.26855 10.502 3.43945 10.248 3.67383L6.08789 7.58007C6.02278 7.63867 5.9414 7.66796 5.84375 7.66796H3.04102C2.38347 7.66796 1.87891 7.84863 1.52734 8.20996C1.17578 8.57129 1 9.10352 1 9.80664V13.4394C1 14.1491 1.17578 14.683 1.52734 15.041C1.87891 15.3991 2.38347 15.5781 3.04102 15.5781H5.84375C5.9414 15.5781 6.02278 15.6074 6.08789 15.666L10.248 19.6113C10.4694 19.8262 10.681 19.9824 10.8828 20.08C11.0846 20.1777 11.2994 20.2265 11.5273 20.2265ZM16.1172 15.7636C16.2865 15.8744 16.472 15.9118 16.6738 15.8759C16.8757 15.8401 17.0417 15.7278 17.1719 15.539C17.5495 15.0442 17.8441 14.4518 18.0557 13.7617C18.2672 13.0716 18.373 12.3522 18.373 11.6035C18.373 10.8548 18.2672 10.1354 18.0557 9.44531C17.8441 8.75521 17.5495 8.16276 17.1719 7.66796C17.0417 7.47916 16.8757 7.36523 16.6738 7.32617C16.472 7.28711 16.2865 7.32617 16.1172 7.44335C15.9219 7.58007 15.8096 7.75748 15.7803 7.97558C15.751 8.19368 15.8144 8.40364 15.9707 8.60546C16.2572 8.99609 16.4769 9.45182 16.6299 9.97265C16.7829 10.4935 16.8594 11.0371 16.8594 11.6035C16.8594 12.1699 16.7813 12.7119 16.625 13.2295C16.4687 13.7471 16.2506 14.2044 15.9707 14.6015C15.821 14.8099 15.7591 15.0215 15.7852 15.2363C15.8112 15.4512 15.9219 15.627 16.1172 15.7636ZM19.7402 18.3125C19.9225 18.4297 20.1146 18.4703 20.3164 18.4345C20.5182 18.3987 20.6842 18.2864 20.8145 18.0976C21.4395 17.2383 21.9261 16.2422 22.2744 15.1093C22.6227 13.9765 22.7969 12.8079 22.7969 11.6035C22.7969 10.3991 22.6244 9.22721 22.2793 8.08789C21.9342 6.94857 21.446 5.95573 20.8145 5.10937C20.6842 4.92057 20.5182 4.80664 20.3164 4.76757C20.1146 4.72851 19.9225 4.77083 19.7402 4.89453C19.5645 5.01823 19.4619 5.18261 19.4326 5.38769C19.4033 5.59277 19.4603 5.79622 19.6035 5.99804C20.1374 6.75325 20.5508 7.61588 20.8438 8.58593C21.1367 9.55599 21.2832 10.5618 21.2832 11.6035C21.2832 12.6452 21.1351 13.6494 20.8389 14.6162C20.5426 15.583 20.1308 16.4473 19.6035 17.209C19.4668 17.4108 19.4114 17.6143 19.4375 17.8193C19.4636 18.0244 19.5645 18.1888 19.7402 18.3125Z" fill="#434343"/>
</svg>
