<svg width="24" height="24" viewBox="0 0 24 24" fill="none" xmlns="http://www.w3.org/2000/svg">
<path d="M6.49995 7.5C6.49995 4.46243 8.96239 2 12 2C15.0375 2 17.5 4.46243 17.5 7.5C17.5 10.5376 15.0375 13 12 13C8.96239 13 6.49995 10.5376 6.49995 7.5Z" fill="#141414"/>
<path d="M9.32622 14.5H14.6737C15.901 14.4995 16.739 14.4992 17.4514 14.7153C19.0494 15.2 20.2999 16.4506 20.7847 18.0486C20.8613 18.3013 20.8995 18.6337 20.9235 18.9068C20.9498 19.207 20.9667 19.5408 20.9778 19.8461C20.9889 20.1533 20.9944 20.4408 20.9972 20.6509C20.9986 20.7562 20.9993 20.8427 20.9996 20.9032L20.9999 20.9736L21 20.9978V20.9993L20 21C21 21 21 20.9993 21 20.9993C21 21.5516 20.5523 22 20 22C20 22 20 22 20 22H4.01639C3.52921 22.0086 3.09614 21.6596 3.01358 21.1645C2.94454 20.7506 2.95261 20.1291 2.98697 19.5983C3.02133 19.0674 3.09343 18.4502 3.21525 18.0486C3.7 16.4506 4.95052 15.2 6.54853 14.7153C7.26093 14.4992 8.09895 14.4995 9.32622 14.5Z" fill="#141414"/>
</svg>
