<svg width="25" height="24" viewBox="0 0 25 24" fill="none" xmlns="http://www.w3.org/2000/svg">
<path d="M14.7413 1H7.25873C6.45377 0.999988 5.7894 0.999978 5.2482 1.04419C4.68611 1.09012 4.1694 1.18868 3.68407 1.43598C2.93142 1.81947 2.3195 2.43139 1.936 3.18404C1.68871 3.66937 1.59015 4.18608 1.54422 4.74818C1.50001 5.28937 1.50002 5.95373 1.50003 6.7587L1.50001 11.5208C1.49988 11.9625 1.49978 12.2897 1.54226 12.5797C1.7984 14.3283 3.17169 15.7016 4.9203 15.9578C4.99179 15.9682 5.03636 15.9951 5.05559 16.0111L5.05558 17.5889C5.05554 17.8615 5.0555 18.1289 5.07452 18.3439C5.09142 18.5349 5.13567 18.9306 5.4168 19.2585C5.73016 19.624 6.19995 19.8169 6.67978 19.7771C7.11021 19.7413 7.41972 19.4909 7.56596 19.3669C7.73062 19.2272 7.91849 19.037 8.11004 18.843L8.50003 18.4481V13C8.50003 10.7909 10.2909 9 12.5 9H20.5V6.75868C20.5 5.95372 20.5001 5.28937 20.4558 4.74818C20.4099 4.18608 20.3113 3.66937 20.0641 3.18404C19.6806 2.43139 19.0686 1.81947 18.316 1.43598C17.8307 1.18868 17.314 1.09012 16.7519 1.04419C16.2107 0.999978 15.5463 0.999988 14.7413 1Z" fill="#141414"/>
<path d="M20.5 10H12.5C10.8432 10 9.50003 11.3431 9.50003 13V17.4356L9.50297 17.4326C9.50646 17.6808 9.51405 17.9068 9.5306 18.1093C9.5629 18.5047 9.63422 18.8979 9.82701 19.2763C10.1146 19.8407 10.5736 20.2997 11.1381 20.5873C11.5164 20.7801 11.9097 20.8514 12.305 20.8837C12.6796 20.9143 13.1343 20.9143 13.6615 20.9143H15.4969C15.9052 20.9143 15.9852 20.9181 16.0544 20.9308C16.1341 20.9455 16.2118 20.9699 16.2857 21.0034C16.3497 21.0324 16.4176 21.0749 16.7528 21.3079L18.9292 22.8211C19.2349 23.0336 19.6333 23.0587 19.9633 22.8862C20.2932 22.7138 20.5 22.3723 20.5 22V20.902C20.556 20.8995 20.6101 20.8965 20.6624 20.8929C20.9922 20.8704 21.3222 20.8209 21.6481 20.6859C22.3832 20.3814 22.9672 19.7974 23.2717 19.0623C23.4067 18.7364 23.4562 18.4065 23.4787 18.0767C23.4991 17.7769 23.5 17.4174 23.5 17.0026C23.5 16.9839 23.5 16.9651 23.5 16.9463V14.1614C23.5 14.1387 23.5 14.1162 23.5 14.0938C23.5 13.5953 23.4987 13.1634 23.4695 12.805C23.4372 12.4096 23.3658 12.0164 23.173 11.638C23.0472 11.3911 22.8886 11.1643 22.7027 10.9633C22.6479 10.904 22.5907 10.8469 22.5313 10.7923C22.3316 10.6086 22.1067 10.4517 21.862 10.327C21.4836 10.1342 21.0904 10.0629 20.6951 10.0306C20.6323 10.0254 20.5673 10.0212 20.5 10.0176V10Z" fill="#141414"/>
</svg>
