<svg width="24" height="24" viewBox="0 0 24 24" fill="none" xmlns="http://www.w3.org/2000/svg">
<path d="M11.4773 1.33636C11.8196 1.24368 12.1804 1.24368 12.5227 1.33636C12.9201 1.44395 13.2546 1.7066 13.5216 1.91624L13.5963 1.97465L20.4563 7.31013C20.8329 7.60241 21.1647 7.85991 21.412 8.19421C21.629 8.48759 21.7906 8.8181 21.889 9.1695C22.0011 9.56992 22.0006 9.98993 22.0001 10.4667L22 17.8386C22 18.3657 22.0001 18.8204 21.9694 19.195C21.9371 19.5904 21.8658 19.9836 21.673 20.362C21.3854 20.9264 20.9265 21.3854 20.362 21.673C19.9836 21.8658 19.5904 21.9371 19.195 21.9694C18.8205 22 18.3657 22 17.8386 22H15.5V13.5807C15.5 13.3172 15.5 13.0898 15.4847 12.9025C15.4686 12.7048 15.4329 12.5082 15.3365 12.319C15.1927 12.0368 14.9633 11.8073 14.681 11.6635C14.4918 11.5671 14.2952 11.5314 14.0975 11.5153C13.9103 11.5 13.6829 11.5 13.4193 11.5H10.5808C10.3172 11.5 10.0898 11.5 9.90252 11.5153C9.70484 11.5314 9.50824 11.5671 9.31905 11.6635C9.0368 11.8073 8.80733 12.0368 8.66352 12.319C8.56712 12.5082 8.53147 12.7048 8.51532 12.9025C8.50001 13.0898 8.50002 13.3172 8.50003 13.5807L8.50003 22H6.16145C5.63431 22 5.17956 22 4.80499 21.9694C4.40964 21.9371 4.01643 21.8658 3.63805 21.673C3.07356 21.3854 2.61462 20.9264 2.327 20.362C2.1342 19.9836 2.06289 19.5904 2.03059 19.195C1.99998 18.8204 2 18.3657 2.00002 17.8385L1.99995 10.4667C1.99943 9.98993 1.99898 9.56992 2.11106 9.1695C2.20942 8.8181 2.37107 8.48759 2.58806 8.19421C2.83532 7.85991 3.16713 7.6024 3.54377 7.31012L10.4038 1.97465L10.4784 1.91623C10.7454 1.7066 11.08 1.44395 11.4773 1.33636Z" fill="#141414"/>
<path d="M9.50003 22H14.5V13.6C14.5 13.3117 14.4996 13.1256 14.4881 12.9839C14.477 12.8481 14.4581 12.7977 14.4455 12.773C14.3976 12.6789 14.3211 12.6024 14.227 12.5545C14.2023 12.5419 14.1519 12.5231 14.0161 12.512C13.8744 12.5004 13.6883 12.5 13.4 12.5H10.6C10.3118 12.5 10.1256 12.5004 9.98395 12.512C9.84812 12.5231 9.79776 12.5419 9.77304 12.5545C9.67896 12.6024 9.60247 12.6789 9.55453 12.773C9.54193 12.7977 9.52309 12.8481 9.512 12.9839C9.50042 13.1256 9.50003 13.3117 9.50003 13.6V22Z" fill="#141414"/>
</svg>
