<svg width="88" height="28" viewBox="0 0 88 28" fill="none" xmlns="http://www.w3.org/2000/svg">
<path d="M6.02884 15.8512C6.36006 15.8512 6.70785 15.81 7.07219 15.7276C7.43654 15.6288 7.80088 15.5299 8.16523 15.4311C8.54614 15.3158 8.91876 15.217 9.28311 15.1346C9.64745 15.0357 9.98696 14.9863 10.3016 14.9863C11.4112 14.9863 12.2558 15.2581 12.8355 15.8018C13.4151 16.3289 13.7049 17.029 13.7049 17.9021C13.7049 18.6599 13.5642 19.3188 13.2826 19.8789C13.0176 20.439 12.6367 20.9085 12.1399 21.2874C11.6431 21.6663 11.0386 21.9546 10.3265 22.1522C9.63089 22.3334 8.8608 22.424 8.01618 22.424C6.82377 22.424 5.78042 22.1852 4.88612 21.7075C3.99182 21.2133 3.23828 20.5626 2.62552 19.7554C2.02932 18.9317 1.58217 17.9927 1.28407 16.9384C0.985965 15.8677 0.836914 14.7557 0.836914 13.6026C0.836914 12.4494 0.969403 11.3457 1.23438 10.2914C1.51592 9.22066 1.92995 8.28168 2.47647 7.47448C3.03955 6.65081 3.73512 6.00012 4.56318 5.52239C5.40779 5.02819 6.40146 4.78109 7.54419 4.78109C9.61433 4.78109 11.1545 5.23411 12.1648 6.14014C13.1915 7.0297 13.7049 8.28991 13.7049 9.92077C13.7049 10.7939 13.4234 11.4857 12.8603 11.9964C12.3138 12.5071 11.6431 12.7624 10.8481 12.7624C10.2851 12.7624 9.7965 12.6718 9.38247 12.4906C8.98501 12.2929 8.57926 12.0788 8.16523 11.8482C7.76776 11.6175 7.32061 11.4116 6.82377 11.2304C6.3435 11.0327 5.7473 10.9339 5.03517 10.9339C4.28992 10.9339 3.702 11.1727 3.2714 11.6505C2.85738 12.1282 2.65036 12.6965 2.65036 13.3555C2.65036 13.7014 2.74145 14.0226 2.92362 14.3192C3.10579 14.6157 3.34593 14.8792 3.64403 15.1099C3.95869 15.3405 4.31476 15.5217 4.71223 15.6535C5.12626 15.7853 5.56513 15.8512 6.02884 15.8512Z" fill="#663A00"/>
<path d="M59.2416 16.6171C60.1359 16.6171 60.7652 16.8642 61.1296 17.3584C61.4939 17.8362 61.6761 18.5363 61.6761 19.4588C61.6761 19.9859 61.585 20.4307 61.4028 20.7931C61.2206 21.1555 60.8811 21.452 60.3843 21.6827C59.8875 21.8968 59.2085 22.0533 58.3473 22.1522C57.4861 22.251 56.3765 22.3004 55.0185 22.3004C54.3726 22.3004 53.7516 22.251 53.1554 22.1522C52.5757 22.0369 52.054 21.8392 51.5903 21.5591C51.1432 21.2626 50.7871 20.859 50.5221 20.3483C50.2571 19.8212 50.1247 19.1458 50.1247 18.3221C50.1247 17.6961 50.1661 17.1855 50.2489 16.7901C50.3482 16.3783 50.4476 16.0158 50.547 15.7029C50.6629 15.3734 50.7623 15.0522 50.8451 14.7392C50.9444 14.4262 50.9941 14.0473 50.9941 13.6025C50.9941 13.1577 50.9444 12.7788 50.8451 12.4658C50.7623 12.1528 50.6629 11.8399 50.547 11.5269C50.4476 11.1974 50.3482 10.835 50.2489 10.4396C50.1661 10.0278 50.1247 9.51711 50.1247 8.9076C50.1247 8.08393 50.282 7.41676 50.5967 6.90609C50.9279 6.37894 51.3502 5.96711 51.8636 5.67059C52.377 5.37407 52.9566 5.17639 53.6025 5.07755C54.2484 4.96223 54.8943 4.90458 55.5402 4.90458C56.567 4.90458 57.4613 4.94576 58.2231 5.02813C59.0014 5.09402 59.6473 5.25052 60.1607 5.49762C60.6741 5.74472 61.055 6.10713 61.3034 6.58486C61.5519 7.04611 61.6761 7.6721 61.6761 8.46282C61.6761 8.89112 61.6015 9.2453 61.4525 9.52535C61.3034 9.78892 61.1047 10.0031 60.8563 10.1678C60.6079 10.3325 60.3181 10.4479 59.9868 10.5137C59.6722 10.5632 59.3409 10.5879 58.9932 10.5879C58.4135 10.5879 57.9001 10.5302 57.453 10.4149C57.0224 10.2996 56.5752 10.2419 56.1115 10.2419C55.8797 10.2419 55.6478 10.2831 55.416 10.3655C55.1841 10.4314 54.9771 10.522 54.7949 10.6373C54.6293 10.7526 54.4885 10.8926 54.3726 11.0574C54.2732 11.2056 54.2235 11.3621 54.2235 11.5269C54.2235 11.8893 54.3312 12.194 54.5465 12.4411C54.7618 12.6718 55.0599 12.7871 55.4408 12.7871C55.6892 12.7871 55.9376 12.7377 56.186 12.6388C56.451 12.54 56.716 12.4411 56.981 12.3423C57.246 12.227 57.5109 12.1199 57.7759 12.0211C58.0575 11.9222 58.339 11.8728 58.6205 11.8728C59.1671 11.8728 59.5976 12.0622 59.9123 12.4411C60.2435 12.8035 60.4091 13.2236 60.4091 13.7013C60.4091 14.1791 60.2518 14.5909 59.9371 14.9368C59.6225 15.2828 59.1836 15.4558 58.6205 15.4558C58.339 15.4558 58.0492 15.4228 57.7511 15.3569C57.4695 15.291 57.188 15.2251 56.9065 15.1592C56.6415 15.0769 56.3765 15.011 56.1115 14.9616C55.8631 14.8957 55.6395 14.8627 55.4408 14.8627C55.1427 14.8627 54.886 14.9451 54.6707 15.1098C54.472 15.2745 54.3726 15.5216 54.3726 15.8511C54.3726 16.2135 54.5548 16.5183 54.9191 16.7654C55.3 17.0125 55.6975 17.136 56.1115 17.136C56.5752 17.136 57.0638 17.0537 57.5772 16.8889C58.1071 16.7077 58.6619 16.6171 59.2416 16.6171Z" fill="#663A00"/>
<path d="M49.4945 8.1169C49.4945 8.74289 49.3951 9.29475 49.1964 9.77247C48.9976 10.2502 48.7823 10.7032 48.5505 11.1315C48.3186 11.5434 48.1033 11.947 47.9046 12.3423C47.7059 12.7377 47.6065 13.1577 47.6065 13.6025C47.6065 14.0473 47.7059 14.4674 47.9046 14.8627C48.1033 15.2581 48.3186 15.6699 48.5505 16.0982C48.7823 16.5101 48.9976 16.9549 49.1964 17.4326C49.3951 17.9103 49.4945 18.4622 49.4945 19.0882C49.4945 19.5494 49.4034 19.9777 49.2212 20.3731C49.0556 20.7684 48.8155 21.1144 48.5008 21.4109C48.2027 21.6909 47.8301 21.9133 47.3829 22.0781C46.9523 22.2263 46.472 22.3005 45.9421 22.3005C44.7662 22.3005 43.9216 22.0451 43.4082 21.5344C42.8948 21.0238 42.6381 20.2989 42.6381 19.36C42.6381 19.0634 42.5967 18.701 42.5139 18.2727C42.4311 17.8279 42.3152 17.3584 42.1661 16.8642C42.0337 16.37 41.8598 15.8841 41.6445 15.4064C41.4457 14.9122 41.2222 14.4674 40.9737 14.072C40.7253 13.6767 40.4603 13.3554 40.1788 13.1083C39.8973 12.8612 39.5992 12.7377 39.2845 12.7377C39.1023 12.7377 38.945 12.82 38.8125 12.9848C38.6966 13.133 38.6303 13.339 38.6138 13.6025C38.6138 14.0473 38.7131 14.4674 38.9119 14.8627C39.1272 15.2581 39.3507 15.6699 39.5826 16.0982C39.831 16.5101 40.0546 16.9549 40.2533 17.4326C40.4686 17.9103 40.5763 18.4622 40.5763 19.0882C40.5763 20.0271 40.2864 20.8014 39.7068 21.4109C39.1437 22.0039 38.3322 22.3005 37.2723 22.3005C36.2124 22.3005 35.3926 22.0039 34.813 21.4109C34.2333 20.8014 33.9435 20.0271 33.9435 19.0882C33.9435 18.4622 34.0346 17.9103 34.2168 17.4326C34.4155 16.9549 34.6308 16.5101 34.8627 16.0982C35.1111 15.6699 35.3264 15.2581 35.5086 14.8627C35.7073 14.4674 35.8067 14.0473 35.8067 13.6025C35.8067 13.1577 35.7073 12.7377 35.5086 12.3423C35.3264 11.947 35.1111 11.5434 34.8627 11.1315C34.6308 10.7032 34.4155 10.2502 34.2168 9.77247C34.0346 9.29475 33.9435 8.74289 33.9435 8.1169C33.9435 7.21087 34.2085 6.46133 34.7385 5.86829C35.285 5.27525 36.0551 4.95402 37.0487 4.9046C38.2246 4.9046 39.1355 5.1517 39.7813 5.6459C40.4438 6.12363 40.775 6.9473 40.775 8.1169C40.775 8.74289 40.8827 9.38535 41.0979 10.0443C41.3132 10.6867 41.5865 11.2798 41.9177 11.8234C42.2655 12.3506 42.6464 12.7871 43.0604 13.133C43.4745 13.4625 43.8719 13.6272 44.2528 13.6272C44.4019 13.6272 44.5261 13.5861 44.6255 13.5037C44.7414 13.4213 44.7994 13.2978 44.7994 13.133C44.7994 12.6718 44.6917 12.2764 44.4764 11.947C44.2777 11.601 44.0541 11.2551 43.8057 10.9091C43.5738 10.5632 43.3503 10.1761 43.135 9.74776C42.9362 9.30298 42.8369 8.75936 42.8369 8.1169C42.8369 7.17792 43.1267 6.41191 43.7063 5.81887C44.286 5.20936 45.1058 4.9046 46.1657 4.9046C47.2256 4.9046 48.0454 5.20936 48.625 5.81887C49.2046 6.41191 49.4945 7.17792 49.4945 8.1169Z" fill="#663A00"/>
<path fill-rule="evenodd" clip-rule="evenodd" d="M23.932 18.206C26.482 18.206 28.5491 16.1498 28.5491 13.6133C28.5491 11.0769 26.482 9.02066 23.932 9.02066C21.382 9.02066 19.3149 11.0769 19.3149 13.6133C19.3149 16.1498 21.382 18.206 23.932 18.206ZM23.932 22.3004C28.7553 22.3004 32.6654 18.4111 32.6654 13.6133C32.6654 8.81555 28.7553 4.9262 23.932 4.9262C19.1087 4.9262 15.1986 8.81555 15.1986 13.6133C15.1986 18.4111 19.1087 22.3004 23.932 22.3004Z" fill="#663A00"/>
<path fill-rule="evenodd" clip-rule="evenodd" d="M80.9793 14.57C81.1052 14.3657 81.2212 14.1526 81.3267 13.9311C81.4617 13.6474 81.575 13.359 81.6671 13.0678L82.888 12.9951C83.1876 12.9773 83.4772 13.1056 83.6652 13.3394C83.9192 13.6552 83.9386 14.0994 83.7129 14.4361L83.704 14.4494C83.4977 14.7572 83.131 14.9167 82.7652 14.8578L80.9793 14.57ZM81.9544 11.6032C81.9147 12.0934 81.82 12.5845 81.6671 13.0678L80.3724 13.1448C80.0747 13.1626 79.7768 13.1564 79.4795 13.1343C78.4554 13.0582 77.0083 13.001 76.3135 12.9779C76.0592 12.9695 75.8152 13.0677 75.6348 13.2472C75.281 13.5992 75.2547 14.1641 75.5752 14.5467C75.7878 14.8004 76.1159 14.927 76.4438 14.8816L79.2718 14.4906C79.705 14.4307 80.1447 14.4356 80.5765 14.5051L80.9793 14.57C79.7426 16.579 77.5643 17.7445 75.2945 17.7641L67.6243 23.2429C66.8573 23.7908 65.8168 23.7614 65.0823 23.1712C64.3478 22.581 64.1001 21.5754 64.4773 20.7143L68.5193 11.4874C68.4487 10.3911 68.6487 9.26206 69.1548 8.1988C70.7461 4.85545 74.761 3.42834 78.1221 5.01127C79.0743 5.45968 79.8719 6.10155 80.4899 6.86729C80.1427 6.85297 79.835 6.84177 79.6077 6.83421C79.3534 6.82574 79.1094 6.92399 78.929 7.10345C78.5751 7.45545 78.5489 8.0204 78.8694 8.40301C79.0819 8.65673 79.4101 8.78325 79.7379 8.73791L81.4609 8.49966C81.6977 9.06827 81.8559 9.66844 81.9291 10.2825C81.6615 10.2941 81.3938 10.2872 81.1266 10.2673C80.1025 10.1912 78.6554 10.134 77.9606 10.1109C77.7063 10.1024 77.4623 10.2007 77.2819 10.3801C76.928 10.7321 76.9018 11.2971 77.2223 11.6797C77.4349 11.9334 77.763 12.0599 78.0909 12.0146L80.9189 11.6235C81.2624 11.576 81.6099 11.5693 81.9544 11.6032ZM81.9544 11.6032C82.0443 11.6121 82.1341 11.6237 82.2235 11.6381L84.4123 11.9907C84.7781 12.0497 85.1448 11.8902 85.3511 11.5824L85.36 11.5691C85.5856 11.2324 85.5663 10.7882 85.3123 10.4723C85.1243 10.2385 84.8346 10.1102 84.5351 10.1281L82.0195 10.2778C81.9894 10.2796 81.9592 10.2812 81.9291 10.2825C81.981 10.7178 81.9902 11.1602 81.9544 11.6032ZM81.4609 8.49966C81.2178 7.91589 80.8918 7.36539 80.4899 6.86729C81.2039 6.89675 82.0846 6.93938 82.7737 6.99061C83.071 7.01272 83.3689 7.01885 83.6666 7.00113L86.1822 6.85138C86.4817 6.83355 86.7714 6.96184 86.9594 7.19566C87.2134 7.51149 87.2327 7.95573 87.0071 8.2924L86.9982 8.3057C86.7919 8.61351 86.4252 8.773 86.0594 8.71406L83.8706 8.36142C83.4389 8.29186 82.9992 8.28695 82.566 8.34685L81.4609 8.49966Z" fill="#663A00"/>
</svg>
